<svg width="960" height="560" viewBox="0 0 960 560" fill="none" xmlns="http://www.w3.org/2000/svg">
  <rect width="960" height="560" rx="32" fill="#f6f8f4"/>
  <rect x="48" y="48" width="864" height="464" rx="24" fill="#ffffff" stroke="#d9e0d9"/>
  <rect x="88" y="94" width="270" height="42" rx="12" fill="#0f5f55"/>
  <rect x="88" y="164" width="210" height="280" rx="18" fill="#eef5f2"/>
  <rect x="328" y="164" width="210" height="280" rx="18" fill="#f3f0e8"/>
  <rect x="568" y="164" width="210" height="280" rx="18" fill="#eef2fb"/>
  <rect x="116" y="202" width="154" height="20" rx="10" fill="#6c817b"/>
  <rect x="116" y="252" width="126" height="20" rx="10" fill="#b8c6c0"/>
  <rect x="116" y="302" width="146" height="20" rx="10" fill="#b8c6c0"/>
  <rect x="356" y="202" width="144" height="20" rx="10" fill="#8c6f2f"/>
  <rect x="356" y="252" width="112" height="20" rx="10" fill="#d2c39f"/>
  <rect x="356" y="302" width="136" height="20" rx="10" fill="#d2c39f"/>
  <rect x="596" y="202" width="136" height="20" rx="10" fill="#365f9f"/>
  <rect x="596" y="252" width="112" height="20" rx="10" fill="#b8c7e5"/>
  <rect x="596" y="302" width="154" height="20" rx="10" fill="#b8c7e5"/>
  <circle cx="820" cy="115" r="26" fill="#b7791f"/>
  <path d="M811 116l6 6 14-16" stroke="#fff" stroke-width="7" stroke-linecap="round" stroke-linejoin="round"/>
</svg>
